<?xml version="1.0" encoding="utf-8"?>
<!-- Generator: Adobe Illustrator 22.0.1, SVG Export Plug-In . SVG Version: 6.00 Build 0)  -->
<svg version="1.1" id="Calque_1" xmlns="http://www.w3.org/2000/svg" xmlns:xlink="http://www.w3.org/1999/xlink" x="0px" y="0px"
	 viewBox="0 0 100 100" style="enable-background:new 0 0 100 100;" xml:space="preserve">
<style type="text/css">
	.st0{fill:#EA3740;}
</style>
<path class="st0" d="M-81.8,94.2l-24-24c6.5-7.4,10.4-17,10.4-27.6c0-23.2-18.9-42.1-42.2-42.1c-23.3,0-42.2,18.9-42.2,42.1
	s18.9,42.1,42.2,42.1c10.6,0,20.3-3.9,27.7-10.3l24,24c0.6,0.6,1.3,0.9,2.1,0.9c0.7,0,1.5-0.3,2.1-0.9
	C-80.6,97.2-80.6,95.3-81.8,94.2L-81.8,94.2z M-173.9,42.6c0-20,16.3-36.2,36.3-36.2c20,0,36.3,16.2,36.3,36.2s-16.3,36.2-36.3,36.2
	C-157.7,78.8-173.9,62.6-173.9,42.6L-173.9,42.6z M-173.9,42.6"/>
<g>
	<path class="st0" d="M38.4,46.1c-0.7,0-1.5,0.5-1.5,3s0.8,3,1.5,3c0.7,0,1.5-0.5,1.5-3S39.1,46.1,38.4,46.1z"/>
	<path class="st0" d="M61,46.1c-0.7,0-1.5,0.5-1.5,3s0.8,3,1.5,3c0.7,0,1.5-0.5,1.5-3S61.6,46.1,61,46.1z"/>
	<path class="st0" d="M45.7,61.1c-0.6,0-1,0.4-1,1v1c0,0.6,0.4,1,1,1c0.6,0,1-0.4,1-1v-1C46.7,61.5,46.3,61.1,45.7,61.1z"/>
	<path class="st0" d="M52.7,62.1v1c0,0.6,0.4,1,1,1s1-0.4,1-1v-1c0-0.6-0.4-1-1-1S52.7,61.5,52.7,62.1z"/>
	<path class="st0" d="M90.3,62L64.7,10.5c-2.4-5.7-7.9-9.7-14.4-10v0c-0.1,0-0.2,0-0.3,0c-0.1,0-0.2,0-0.3,0v0
		c-6.5,0.2-12,4.3-14.4,10L9.7,62c0,0-1.2,2.8-1.2,6.7c0,10,8.1,18.1,18.1,18.1c3.7,0,7.2-1.1,10.1-3.1c-0.1,1.8-0.1,3.5-0.1,5.3
		c0,3.3,1.6,6.1,4.5,7.9c2.3,1.4,5.4,2.2,8.6,2.2c3.2,0,6.3-0.8,8.6-2.2c3-1.8,4.5-4.6,4.5-7.9c0-1.9,0-3.9-0.1-5.8
		c3,2.2,6.7,3.5,10.7,3.5c10,0,18.1-8.1,18.1-18.1C91.6,64.9,90.3,62,90.3,62z M56.1,93.4L56.1,93.4c-0.6,0.4-1.3,0.7-2.1,1
		c-0.1-0.2-0.2-0.4-0.2-0.5C53,92.3,52,90,49.7,90c-2.3,0-3.3,2.3-4,3.9c-0.1,0.1-0.1,0.3-0.2,0.5c-0.8-0.3-1.5-0.6-2.1-1
		c-1.7-1.1-2.5-2.5-2.5-4.3c0-16,2.3-26.6,4.2-34.4c1.4,0.8,3,1.5,4.7,1.5c1.6,0,3.3-0.7,4.7-1.5c1.9,7.8,4.2,18.4,4.2,34.4
		C58.6,90.9,57.8,92.3,56.1,93.4z M62,73.4c-1-9.2-2.6-16-3.9-21.1c-0.1-0.6-0.3-1.1-0.4-1.6l0-0.1l0-0.1c-0.1-0.4-0.3-0.7-0.6-1
		l0,0c0,0-0.1-0.1-0.1-0.1c0,0-0.1,0-0.1-0.1l0,0c0,0-0.1,0-0.1-0.1c0,0-0.1,0-0.1-0.1c0,0-0.1,0-0.1-0.1c0,0,0,0-0.1,0l0,0
		c0,0-0.1,0-0.1,0c0,0-0.1,0-0.1,0l0,0c0,0-0.1,0-0.1,0c0,0-0.1,0-0.1,0c0,0-0.1,0-0.1,0c0,0-0.1,0-0.1,0c0,0-0.1,0-0.1,0
		c0,0-0.1,0-0.1,0c0,0-0.1,0-0.1,0l-0.1,0c0,0-0.1,0-0.1,0c0,0,0,0,0,0l-0.1,0l-0.1,0c-0.2,0.1-0.4,0.2-0.6,0.3l-0.1,0.1
		c0,0,0,0-0.1,0c0,0,0,0-0.1,0l-0.1,0c-0.9,0.8-3.1,2.4-4.5,2.4c-1.3,0-3.4-1.4-4.5-2.4l-0.1-0.1l-0.1,0c0,0-0.1,0-0.1-0.1l-0.1-0.1
		c0,0,0,0-0.1,0c0,0,0,0-0.1,0l-0.1,0c0,0-0.1,0-0.1,0l-0.1,0c0,0-0.1,0-0.1,0l-0.1,0l0,0c0,0,0,0,0,0l0,0c0,0-0.1,0-0.1,0
		c0,0-0.1,0-0.1,0c0,0-0.1,0-0.1,0c0,0,0,0-0.1,0l0,0c0,0-0.1,0-0.1,0l-0.1,0c0,0-0.1,0-0.1,0c0,0-0.1,0-0.1,0l-0.1,0
		c0,0-0.1,0-0.1,0l-0.1,0c0,0-0.1,0-0.1,0l-0.1,0c0,0-0.1,0-0.1,0l0,0c0,0,0,0-0.1,0l0,0c0,0-0.1,0-0.1,0.1c0,0-0.1,0-0.1,0.1
		c0,0-0.1,0-0.1,0.1c0,0-0.1,0-0.1,0.1c0,0,0,0,0,0L42,49.8l0,0.1l0,0c0,0,0,0.1-0.1,0.1c0,0,0,0.1-0.1,0.1c0,0,0,0,0,0.1l-0.1,0.1
		l0,0.1c0,0,0,0.1,0,0.1l0,0.1c0,0,0,0.1,0,0.1l0,0.1v0c-0.1,0.3-0.2,0.7-0.2,1l-0.1,0.5c-1.2,5.1-2.9,12-3.9,21.2
		c-1.6-0.8-4-2.8-4.6-8.5c-0.3-3.2,0.8-7,1.7-10c0.7-2.2,1.3-4.2,1.3-5.8c0-3.7,1-6.8,1.7-7.8c0.8-1.2,2.6-2.3,5.1-3.1
		c2.1-0.6,4.7-1,7.1-1c2.4,0,5,0.4,7.1,1c2.5,0.7,4.3,1.8,5.1,3.1c0.7,1.1,1.7,4.2,1.7,7.8c0,1.6,0.6,3.5,1.3,5.8
		c0.9,3,2.1,6.8,1.7,10C66.1,69.2,64.6,72.1,62,73.4z M86.3,68.9c0,7.4-6,13.4-13.4,13.4c-4,0-7.6-1.8-10.1-4.6l-0.1-0.1
		c1-0.4,2.4-1,3.8-2.4c2.4-2.3,3.8-5.6,4.2-10c0.4-4.1-0.9-8.3-1.9-11.7l-1.1,0.3l1.1-0.3c-0.6-1.8-1.1-3.6-1.1-4.5
		c0-4.5-1.2-8.4-2.3-10.2c-2.8-4.4-10-5.9-15.7-6l0,0l-0.2,0c-5.7,0-12.8,1.6-15.7,6c-1.2,1.8-2.3,5.6-2.3,10.2c0,1-0.5,2.7-1.1,4.5
		c-1,3.4-2.3,7.6-1.9,11.7c0.4,4.4,1.9,7.8,4.2,10c1.5,1.5,3.1,2.1,4.2,2.5c0,0.1,0,0.1,0,0.2c-2.4,2.6-5.9,4.3-9.8,4.3
		c-7.4,0-13.4-6-13.4-13.4c-0.1-2.8,0.7-4.5,0.7-4.5l25.6-51.5c2.9-5.1,5.2-6.7,9.6-6.7c0,0,0,0,0,0v0c0.1,0,0.2,0,0.3,0
		c0.1,0,0.2,0,0.3,0v0c0,0,0,0,0,0c4.4,0,6.7,1.6,9.6,6.7l25.6,51.5C85.6,64.4,86.3,66.1,86.3,68.9z"/>
</g>
</svg>
