<?xml version="1.0" encoding="utf-8"?>
<!-- Generator: Adobe Illustrator 22.0.1, SVG Export Plug-In . SVG Version: 6.00 Build 0)  -->
<svg version="1.1" id="Calque_1" xmlns="http://www.w3.org/2000/svg" xmlns:xlink="http://www.w3.org/1999/xlink" x="0px" y="0px"
	 viewBox="0 0 100 100" style="enable-background:new 0 0 100 100;" xml:space="preserve">
<style type="text/css">
	.st0{clip-path:url(#SVGID_2_);}
</style>
<g>
	<g>
		<defs>
			<rect id="SVGID_1_" x="0.5" y="0.5" width="99" height="99"/>
		</defs>
		<clipPath id="SVGID_2_">
			<use xlink:href="#SVGID_1_"  style="overflow:visible;"/>
		</clipPath>
		<path class="st0" d="M98.6,94.2l-24-24c6.5-7.4,10.4-17,10.4-27.6C84.9,19.4,66,0.5,42.7,0.5C19.4,0.5,0.5,19.4,0.5,42.6
			s18.9,42.1,42.2,42.1c10.6,0,20.3-3.9,27.7-10.3l24,24c0.6,0.6,1.3,0.9,2.1,0.9c0.7,0,1.5-0.3,2.1-0.9
			C99.7,97.2,99.7,95.3,98.6,94.2L98.6,94.2z M6.4,42.6c0-20,16.3-36.2,36.3-36.2c20,0,36.3,16.2,36.3,36.2S62.7,78.8,42.7,78.8
			C22.7,78.8,6.4,62.6,6.4,42.6L6.4,42.6z M6.4,42.6"/>
	</g>
</g>
</svg>
